<mxfile host="app.diagrams.net" modified="2022-04-22T06:34:09.403Z" agent="5.0 (X11)" etag="P-hSiWMBfAEUvSqSAE5u" version="17.4.5" type="github">
  <diagram id="D0ECv02U715d0OrMcdWO" name="Page-1">
    <mxGraphModel dx="868" dy="437" grid="1" gridSize="10" guides="1" tooltips="1" connect="1" arrows="1" fold="1" page="1" pageScale="1" pageWidth="850" pageHeight="1100" math="0" shadow="0">
      <root>
        <mxCell id="0" />
        <mxCell id="1" parent="0" />
        <mxCell id="74mOqy6XZnpY0VHjAu_e-3" value="" style="edgeStyle=orthogonalEdgeStyle;rounded=0;orthogonalLoop=1;jettySize=auto;html=1;" edge="1" parent="1" source="74mOqy6XZnpY0VHjAu_e-1" target="74mOqy6XZnpY0VHjAu_e-2">
          <mxGeometry relative="1" as="geometry" />
        </mxCell>
        <mxCell id="74mOqy6XZnpY0VHjAu_e-5" style="edgeStyle=orthogonalEdgeStyle;rounded=0;orthogonalLoop=1;jettySize=auto;html=1;" edge="1" parent="1" source="74mOqy6XZnpY0VHjAu_e-1" target="74mOqy6XZnpY0VHjAu_e-4">
          <mxGeometry relative="1" as="geometry" />
        </mxCell>
        <mxCell id="74mOqy6XZnpY0VHjAu_e-1" value="" style="rounded=1;whiteSpace=wrap;html=1;" vertex="1" parent="1">
          <mxGeometry x="425" y="150" width="120" height="60" as="geometry" />
        </mxCell>
        <mxCell id="74mOqy6XZnpY0VHjAu_e-2" value="" style="shape=cube;whiteSpace=wrap;html=1;boundedLbl=1;backgroundOutline=1;darkOpacity=0.05;darkOpacity2=0.1;" vertex="1" parent="1">
          <mxGeometry x="250" y="120" width="120" height="80" as="geometry" />
        </mxCell>
        <mxCell id="74mOqy6XZnpY0VHjAu_e-4" value="Actor" style="shape=umlActor;verticalLabelPosition=bottom;verticalAlign=top;html=1;outlineConnect=0;" vertex="1" parent="1">
          <mxGeometry x="410" y="300" width="30" height="60" as="geometry" />
        </mxCell>
        <mxCell id="74mOqy6XZnpY0VHjAu_e-13" style="edgeStyle=orthogonalEdgeStyle;rounded=0;orthogonalLoop=1;jettySize=auto;html=1;" edge="1" parent="1" source="74mOqy6XZnpY0VHjAu_e-6" target="74mOqy6XZnpY0VHjAu_e-12">
          <mxGeometry relative="1" as="geometry">
            <Array as="points">
              <mxPoint x="160" y="470" />
            </Array>
          </mxGeometry>
        </mxCell>
        <mxCell id="74mOqy6XZnpY0VHjAu_e-6" value="" style="rounded=1;whiteSpace=wrap;html=1;" vertex="1" parent="1">
          <mxGeometry x="120" y="510" width="120" height="60" as="geometry" />
        </mxCell>
        <mxCell id="74mOqy6XZnpY0VHjAu_e-10" value="" style="edgeStyle=orthogonalEdgeStyle;rounded=0;orthogonalLoop=1;jettySize=auto;html=1;" edge="1" parent="1" source="74mOqy6XZnpY0VHjAu_e-7" target="74mOqy6XZnpY0VHjAu_e-9">
          <mxGeometry relative="1" as="geometry">
            <Array as="points">
              <mxPoint x="550" y="640" />
            </Array>
          </mxGeometry>
        </mxCell>
        <mxCell id="74mOqy6XZnpY0VHjAu_e-7" value="" style="rounded=1;whiteSpace=wrap;html=1;" vertex="1" parent="1">
          <mxGeometry x="490" y="510" width="120" height="60" as="geometry" />
        </mxCell>
        <mxCell id="74mOqy6XZnpY0VHjAu_e-11" value="" style="edgeStyle=orthogonalEdgeStyle;rounded=0;orthogonalLoop=1;jettySize=auto;html=1;" edge="1" parent="1" source="74mOqy6XZnpY0VHjAu_e-9" target="74mOqy6XZnpY0VHjAu_e-6">
          <mxGeometry relative="1" as="geometry" />
        </mxCell>
        <mxCell id="74mOqy6XZnpY0VHjAu_e-9" value="request" style="text;html=1;align=center;verticalAlign=middle;resizable=0;points=[];autosize=1;strokeColor=none;fillColor=none;" vertex="1" parent="1">
          <mxGeometry x="330" y="630" width="60" height="20" as="geometry" />
        </mxCell>
        <mxCell id="74mOqy6XZnpY0VHjAu_e-14" style="edgeStyle=orthogonalEdgeStyle;rounded=0;orthogonalLoop=1;jettySize=auto;html=1;" edge="1" parent="1" source="74mOqy6XZnpY0VHjAu_e-12" target="74mOqy6XZnpY0VHjAu_e-7">
          <mxGeometry relative="1" as="geometry" />
        </mxCell>
        <mxCell id="74mOqy6XZnpY0VHjAu_e-12" value="response" style="text;html=1;align=center;verticalAlign=middle;resizable=0;points=[];autosize=1;strokeColor=none;fillColor=none;" vertex="1" parent="1">
          <mxGeometry x="350" y="460" width="60" height="20" as="geometry" />
        </mxCell>
        <mxCell id="74mOqy6XZnpY0VHjAu_e-15" value="JSON" style="text;html=1;align=center;verticalAlign=middle;resizable=0;points=[];autosize=1;strokeColor=none;fillColor=none;" vertex="1" parent="1">
          <mxGeometry x="340" y="540" width="50" height="20" as="geometry" />
        </mxCell>
      </root>
    </mxGraphModel>
  </diagram>
</mxfile>
